<?xml version="1.0" encoding="UTF-8"?>
<svg width="300" height="600" viewBox="0 0 300 600" xmlns="http://www.w3.org/2000/svg">
  <path d="M150 50 
           C 180 50, 200 70, 200 100
           C 200 130, 190 150, 180 170
           L 190 250
           C 190 280, 180 300, 170 320
           L 180 400
           C 180 450, 170 500, 160 550
           L 150 580
           L 140 550
           C 130 500, 120 450, 120 400
           L 130 320
           C 120 300, 110 280, 110 250
           L 120 170
           C 110 150, 100 130, 100 100
           C 100 70, 120 50, 150 50"
        fill="none" stroke="white" stroke-width="2"/>
</svg>
